<?xml version="1.0" standalone="no"?>
<!DOCTYPE svg PUBLIC "-//W3C//DTD SVG 20010904//EN"
 "http://www.w3.org/TR/2001/REC-SVG-20010904/DTD/svg10.dtd">
<svg version="1.0" xmlns="http://www.w3.org/2000/svg"
 width="1024.000000pt" height="1024.000000pt" viewBox="0 0 1024.000000 1024.000000"
 preserveAspectRatio="xMidYMid meet">

<g transform="translate(0.000000,1024.000000) scale(0.100000,-0.100000)"
fill="#000000" stroke="none">
<path d="M2671 9159 c-293 -25 -527 -87 -751 -199 -113 -57 -222 -128 -215
-140 3 -5 0 -7 -7 -5 -19 8 -184 -140 -267 -238 -213 -253 -334 -547 -388
-940 -15 -110 -17 -346 -20 -2442 -4 -2401 -4 -2447 37 -2683 129 -753 622
-1262 1352 -1396 257 -47 267 -48 2798 -44 2591 4 2419 0 2677 57 333 72 659
255 874 489 83 91 198 265 258 392 91 194 151 416 182 675 14 124 13 4623 -1
4835 -34 475 -177 830 -450 1114 -266 277 -590 435 -1050 513 -98 16 -260 17
-2515 19 -1325 1 -2457 -2 -2514 -7z m919 -1325 l0 -126 -35 -41 c-45 -52 -69
-133 -62 -199 23 -195 227 -336 434 -301 127 22 233 96 284 198 19 41 24 65
24 130 0 85 -16 129 -70 193 -24 28 -25 36 -25 151 l0 121 980 0 980 0 0 -121
c0 -115 -1 -123 -25 -151 -54 -64 -70 -108 -70 -193 0 -67 5 -88 27 -130 74
-142 243 -225 401 -198 246 42 383 279 272 468 -12 22 -32 49 -44 59 -19 17
-21 30 -21 143 l0 125 288 -4 c268 -3 291 -5 352 -27 138 -48 247 -143 315
-272 70 -133 66 -10 63 -1936 l-3 -1738 -33 -85 c-64 -170 -200 -301 -364
-352 l-73 -23 -2055 0 c-2257 0 -2098 -4 -2240 63 -146 68 -275 236 -309 400
-16 76 -15 3440 0 3514 16 74 68 183 117 245 50 63 163 145 239 173 87 32 142
38 406 39 l247 1 0 -126z m3324 -4748 c44 -18 66 -52 66 -99 0 -70 -44 -117
-110 -117 -67 0 -111 44 -112 111 0 48 23 86 65 104 41 18 50 18 91 1z m625
-5 c22 -12 23 -16 16 -79 -4 -37 -9 -70 -12 -74 -2 -5 -31 -8 -64 -8 -76 0
-99 -20 -99 -85 l0 -45 85 0 86 0 -3 -82 -3 -83 -82 -3 -83 -3 0 -263 c0 -214
-3 -266 -14 -275 -9 -8 -46 -11 -103 -9 l-88 3 -3 272 -2 272 -53 3 -52 3 0
80 0 80 53 3 52 3 0 48 c0 113 60 215 145 247 48 17 188 14 224 -5z m-4814
-25 c98 -45 162 -119 183 -214 15 -64 4 -72 -94 -72 l-84 0 -32 51 c-36 59
-88 88 -156 89 -84 0 -142 -43 -142 -106 0 -58 30 -80 158 -120 239 -73 304
-110 347 -198 25 -51 27 -64 23 -139 -5 -99 -27 -147 -94 -205 -76 -67 -138
-87 -279 -87 -102 0 -129 4 -177 23 -108 44 -208 162 -208 248 0 47 17 55 107
52 l78 -3 16 -35 c21 -45 48 -68 96 -86 50 -18 145 -18 188 0 42 18 71 71 61
111 -12 47 -49 70 -193 114 -163 51 -219 78 -267 127 -109 112 -79 330 57 420
74 49 140 65 252 61 84 -3 111 -8 160 -31z m3749 1 c32 -15 74 -40 95 -56 65
-52 120 -181 91 -216 -9 -11 -33 -15 -87 -15 -74 0 -113 11 -113 32 0 26 -52
77 -95 93 -52 21 -129 16 -169 -10 -29 -19 -50 -75 -41 -107 14 -44 40 -59
194 -108 179 -57 249 -94 290 -150 84 -116 55 -299 -61 -390 -67 -54 -156 -80
-267 -80 -182 0 -304 68 -367 204 -46 98 -28 126 79 126 40 0 77 -4 82 -8 6
-4 19 -25 30 -47 24 -47 66 -73 135 -84 137 -22 227 46 190 143 -12 33 -58 55
-205 101 -66 21 -141 48 -166 60 -127 65 -182 221 -124 359 33 78 125 151 222
176 21 5 81 8 134 6 78 -2 106 -8 153 -29z m-1389 -482 l0 -500 -90 0 c-89 0
-90 0 -93 25 -6 53 -11 55 -45 23 -58 -56 -93 -68 -192 -68 -78 0 -97 4 -141
27 -218 115 -247 478 -52 653 63 57 130 79 217 73 66 -5 135 -32 160 -62 8 -9
17 -16 22 -16 5 0 9 76 9 168 0 93 3 172 7 176 4 4 50 5 103 4 l95 -3 0 -500z
m-1797 402 c6 -7 12 -51 14 -97 l3 -85 75 -3 c41 -2 80 -8 87 -14 14 -11 18
-124 5 -145 -5 -7 -39 -13 -87 -15 l-80 -3 -3 -160 c-1 -88 0 -170 3 -182 6
-27 53 -42 108 -35 56 6 67 -8 67 -90 0 -83 0 -83 -130 -83 -114 0 -176 24
-215 84 -36 55 -44 110 -45 299 l0 172 -49 0 c-35 0 -51 4 -55 16 -8 22 -7
127 2 141 4 6 28 13 52 15 l45 3 5 81 c7 108 13 114 110 114 51 0 81 -4 88
-13z m4612 -2 c8 -10 13 -41 12 -78 -1 -108 -2 -106 91 -109 l82 -3 0 -80 0
-80 -85 -5 -85 -5 0 -172 c0 -207 1 -208 98 -208 34 0 68 -4 75 -8 16 -10 17
-143 1 -153 -21 -13 -183 -16 -227 -5 -51 14 -103 58 -128 109 -16 31 -20 69
-24 237 l-5 200 -45 5 -45 5 0 80 0 80 45 5 45 5 3 85 c2 46 8 90 14 97 16 20
162 18 178 -2z m-4130 -430 c5 -264 8 -277 65 -301 44 -18 75 -18 124 2 65 26
70 47 71 300 1 121 5 226 9 232 5 9 35 12 102 10 l94 -3 0 -355 0 -355 -90 0
-90 0 -3 33 c-2 17 -5 32 -8 32 -2 0 -25 -15 -51 -34 -66 -46 -113 -60 -190
-53 -115 9 -207 92 -232 207 -12 54 -15 487 -5 515 5 13 22 15 103 13 l96 -3
5 -240z m1662 50 c100 -281 99 -279 109 -264 4 7 40 108 80 224 40 115 76 216
82 223 14 17 186 17 193 -1 7 -19 -322 -842 -357 -894 -54 -78 -181 -129 -264
-105 -30 8 -30 9 -30 82 l0 73 55 13 c62 14 93 42 111 104 11 37 10 47 -16
108 -94 224 -235 579 -235 592 0 33 22 41 115 38 l90 -3 67 -190z m1540 185
c5 -16 -1 -683 -7 -698 -3 -9 -29 -12 -97 -10 l-93 3 -3 345 c-1 190 0 351 3
357 6 16 192 18 197 3z"/>
<path d="M3535 6820 l-370 -5 -48 -28 c-55 -32 -91 -82 -107 -147 -8 -32 -10
-407 -8 -1275 3 -1361 -2 -1264 68 -1332 18 -18 49 -40 69 -50 34 -17 130 -18
1988 -18 l1951 0 44 30 c28 20 52 49 71 84 l27 55 0 1259 0 1259 -27 49 c-29
54 -96 105 -147 114 -43 7 -3055 11 -3511 5z m2660 -431 c30 -8 67 -38 149
-118 114 -111 136 -145 136 -209 0 -73 -26 -111 -193 -282 -345 -353 -857
-880 -1251 -1287 -146 -151 -196 -174 -293 -135 -55 22 -943 893 -975 956 -24
47 -28 129 -8 165 23 44 221 246 262 269 49 26 99 28 150 4 22 -10 161 -140
342 -320 l306 -303 242 248 c269 275 535 548 795 814 136 140 180 180 215 192
53 19 72 20 123 6z"/>
<path d="M4660 2619 c-70 -28 -104 -89 -104 -189 -1 -64 3 -82 26 -121 53 -91
173 -106 250 -32 56 53 68 177 26 262 -36 72 -126 109 -198 80z"/>
</g>
</svg>
